<svg width="581" height="576" viewBox="0 0 581 576" fill="none" xmlns="http://www.w3.org/2000/svg">
<path fill-rule="evenodd" clip-rule="evenodd" d="M84.5 24.3827L44 1L0.69873 26V76L44 101L84.5 77.6173L123.699 100.249V127.311L114.5 122L53.4452 157.25V227.75L114.5 263L123.699 257.689V285L166.349 309.624L165.699 310V358.751L123.699 383V428.751L81.6987 453V503L125 528L165.59 504.565L223.5 538L284.555 502.75V444.855L338.445 475.968V540.75L399.5 576L460.555 540.75V470.25L399.555 435.032V370.25L388.739 364.006L425.555 342.75V279.814L458.445 260.824V328.75L519.5 364L580.555 328.75V258.25L519.5 223L484.555 243.176V177.082L540.555 144.75V74.25L479.5 39L418.445 74.25V142.918L362.5 175.218L313.16 146.732L368.555 114.75V44.25L307.5 9L246.445 44.25V101.546L245.5 101L210.301 121.322V98L168.301 73.7513V26L125 1L84.5 24.3827Z" fill="#FFD235"/>
<path d="M158.894 305.666C189.14 338.661 229.01 263.046 231.073 262.359C242.529 260.755 252.107 270.195 198.764 320.789C145.421 371.382 127.502 300.903 125.211 259.34C123.764 258.877 122.164 258.282 120.399 257.547C107.201 252.047 108.549 242.882 110.873 238.987C107.332 234.993 106.509 230.116 111.603 225.238C109.415 223.033 108.417 220.612 109.401 218.364C113.25 209.565 134.377 214.698 144.459 218.364C144.917 209.886 148.996 191.005 161.644 183.306C177.454 173.682 182.954 197.054 170.58 205.991C158.207 214.927 128.648 272.67 158.894 305.666Z" fill="#807757"/>
<path d="M144.459 218.364C144.917 209.886 148.996 191.005 161.644 183.306C177.454 173.682 182.954 197.054 170.58 205.991C158.207 214.927 128.648 272.67 158.894 305.666C189.14 338.661 229.01 263.046 231.073 262.359C242.529 260.755 252.107 270.195 198.764 320.789C145.421 371.382 127.502 300.903 125.211 259.34M144.459 218.364C134.377 214.698 113.25 209.565 109.401 218.364C108.417 220.612 109.415 223.033 111.603 225.238M144.459 218.364C145.3 226.358 141.893 230.489 136.897 232.058M136.897 232.058C128.904 234.568 116.842 230.521 111.603 225.238M136.897 232.058C139.61 236.249 142.97 244.6 136.897 247.301M111.603 225.238C106.509 230.116 107.332 234.993 110.873 238.987M110.873 238.987C116.313 245.124 128.172 249.172 134.835 247.923C135.619 247.776 136.303 247.566 136.897 247.301M110.873 238.987C108.549 242.882 107.201 252.047 120.399 257.547C122.164 258.282 123.764 258.877 125.211 259.34M136.897 247.301C138.739 257.796 137.291 263.199 125.211 259.34" stroke="black"/>
<path d="M496.414 309.357C462.868 301.658 440.275 323.105 433.172 334.791C441.971 334.791 449.212 354.956 451.732 365.038C457.781 333.692 484.04 314.857 496.414 309.357Z" fill="black" stroke="black"/>
<path d="M239.157 533.873C227.059 497.577 224.951 434.427 225.409 407.389C225.334 388.141 255.655 385.391 245.344 416.325C235.033 447.259 263.217 542.122 259.092 547.621C254.968 553.12 183.477 550.37 168.354 547.621C156.255 545.421 165.146 537.539 171.103 533.873C199.15 517.375 228.159 526.998 239.157 533.873Z" fill="#817757" stroke="black"/>
<path d="M419.424 1.82919C353.982 6.77856 353.661 73.091 361.681 105.628C364.431 103.979 367.409 104.941 368.555 105.628C357.007 17.6397 393.989 8.93245 413.924 15.5774C424.923 26.4626 501.226 -4.35752 419.424 1.82919Z" fill="black" stroke="black"/>
<path d="M239.329 21.2055C303.008 5.3281 324.162 68.1767 326.779 101.586C323.65 100.884 321.125 102.734 320.254 103.747C303.552 16.5894 265.707 19.9516 248.872 32.5274C241.854 46.3187 159.73 41.0522 239.329 21.2055Z" fill="black" stroke="black"/>
<path d="M200.139 315.289C177.592 370.282 209.534 421.151 228.323 439.711C255.819 462.396 325.111 498.828 382.303 463.083C439.496 427.338 455.627 383.572 456.544 366.158C454.904 344.161 436.03 305.391 373.657 326.288C384.371 286.741 368.422 242.299 356.869 221.801C371.763 213.781 401.001 187.156 398.801 144.811C396.052 91.8803 303.938 82.2565 262.694 133.812C229.698 175.057 253.986 209.657 270.255 221.801C256.278 230.05 222.686 260.296 200.139 315.289Z" fill="#FFD235"/>
<path d="M361.681 352.41C367.33 344.193 371.196 335.37 373.657 326.288M373.657 326.288C384.371 286.741 368.422 242.299 356.869 221.801C371.763 213.781 401.001 187.156 398.801 144.811C396.052 91.8803 303.938 82.2565 262.694 133.812C229.698 175.057 253.986 209.657 270.255 221.801C256.278 230.05 222.686 260.296 200.139 315.289C177.592 370.282 209.534 421.151 228.323 439.711C255.819 462.396 325.111 498.828 382.303 463.083C439.496 427.338 455.627 383.572 456.544 366.158C454.904 344.161 436.03 305.391 373.657 326.288Z" stroke="black"/>
<path d="M312.875 129.688C304.626 119.789 290.419 115.023 285.378 113.877C307.925 99.5793 338.538 97.3796 348.62 98.7544C399.489 106.316 405.675 128.313 402.238 164.059C399.489 192.655 368.326 215.385 355.494 222.489L339.684 214.927C369.93 198.429 382.303 164.059 385.053 154.435C387.803 144.811 379.554 118.002 355.494 119.377C331.435 120.752 323.186 142.061 312.875 129.688Z" fill="black"/>
<path d="M403.613 447.96C423.411 425.963 402.697 355.388 389.865 322.851C382.166 324.501 378.866 325.83 378.179 326.288C398.526 366.433 389.407 434.212 382.303 463.083L403.613 447.96Z" fill="black"/>
<path d="M239.322 445.898C321.811 481.643 353.432 399.841 360.994 352.41L366.493 340.822L360.994 351.035C276.304 324.088 212.971 337.974 191.89 348.285C190.24 342.236 196.702 324.226 200.139 315.977C244.133 290.13 332.122 316.664 370.617 333.162C379.554 500.203 281.941 467.207 267.505 463.083C255.957 459.783 243.904 450.251 239.322 445.898Z" fill="black"/>
<path d="M370.617 333.162C379.554 500.203 281.941 467.207 267.505 463.083C255.957 459.783 243.904 450.251 239.322 445.898C321.811 481.643 353.432 399.841 360.994 352.41L366.493 340.822L370.617 333.162ZM370.617 333.162L360.994 351.035C276.304 324.088 212.971 337.974 191.89 348.285C190.24 342.236 196.702 324.226 200.139 315.977C244.133 290.13 332.122 316.664 370.617 333.162ZM389.865 322.851C402.697 355.388 423.411 425.963 403.613 447.96L382.303 463.083C389.407 434.212 398.526 366.433 378.179 326.288C378.866 325.83 382.166 324.501 389.865 322.851Z" stroke="black"/>
<path d="M360.306 351.035C332.81 394.342 197.389 376.469 194.64 376.469C194.64 381.281 199.452 392.28 200.826 393.654C330.61 409.602 361.223 371.886 360.306 351.035Z" fill="black"/>
<path d="M296.792 533.873C308.891 497.577 310.999 434.427 310.541 407.389C310.616 388.141 280.294 385.391 290.606 416.325C300.917 447.259 272.733 542.122 276.857 547.621C280.982 553.12 352.473 550.37 367.596 547.621C379.694 545.421 370.804 537.539 364.846 533.873C336.8 517.375 307.791 526.998 296.792 533.873Z" fill="#817757" stroke="black"/>
<path d="M415.987 364.096C425.885 317.901 380.699 271.066 356.869 253.422C345.412 248.61 332.397 250.81 371.992 298.104C421.486 357.221 380.241 412.214 379.554 403.966C378.866 395.717 363.743 391.592 352.745 397.091C341.746 402.591 341.746 427.338 363.743 435.587C385.74 443.835 403.613 421.838 415.987 364.096Z" fill="#807757" stroke="black"/>
<path d="M260.631 156.497C264.756 154.435 281.254 142.749 291.565 154.435C301.876 166.121 274.38 153.06 260.631 156.497Z" fill="white" stroke="black"/>
<path d="M353.632 156.806C349.508 154.743 333.01 143.057 322.699 154.743C312.387 166.43 339.884 153.369 353.632 156.806Z" fill="white" stroke="black"/>
<path d="M279.191 178.043C298.667 183.497 342.706 188.541 363.052 165.091M363.052 165.091C361.907 164.636 358.378 164.273 353.429 166.454M363.052 165.091C365.115 166.227 368.689 169.454 366.489 173.271" stroke="black" stroke-width="2" stroke-linecap="round" stroke-linejoin="round"/>
<path d="M294.315 217.677C309.438 212.407 343.121 205.716 356.869 221.114C339.328 222.668 304.918 229.085 303.304 242.492C303.828 248.509 303.539 251.299 303.251 243.798C303.234 243.356 303.252 242.92 303.304 242.492C302.578 234.169 300.299 219.672 294.315 217.677C292.657 218.124 290.885 218.422 289.045 218.598C281.771 220.561 270.271 225.847 268.193 236.237C265.993 247.236 260.86 226.155 258.569 214.24C264.653 216.333 278.065 219.648 289.045 218.598C291.397 217.964 293.307 217.677 294.315 217.677Z" fill="black"/>
<path d="M294.315 217.677C309.438 212.407 343.121 205.716 356.869 221.114C338.767 222.718 302.701 229.5 303.251 243.798C303.938 261.671 304.626 221.114 294.315 217.677ZM294.315 217.677C290.19 217.677 270.943 222.489 268.193 236.237C265.993 247.236 260.86 226.155 258.569 214.24C265.672 216.684 282.766 220.793 294.315 217.677Z" stroke="black" stroke-width="2"/>
<path d="M277.817 224.551C288.815 209.428 314.25 217.677 301.189 230.738C298.829 233.098 296.518 234.403 294.315 234.936C296.377 235.637 301.189 267.17 297.752 278.169C294.315 289.168 269.568 296.729 262.694 276.107C257.194 259.609 276.9 241.318 287.44 234.236C283.064 232.299 279.614 227.905 277.817 224.551Z" fill="#C92A2A"/>
<path d="M287.44 234.236C283.064 232.299 279.614 227.905 277.817 224.551C288.815 209.428 314.25 217.677 301.189 230.738C298.829 233.098 296.518 234.403 294.315 234.936M287.44 234.236C276.9 241.318 257.194 259.609 262.694 276.107C269.568 296.729 294.315 289.168 297.752 278.169C301.189 267.17 296.377 235.637 294.315 234.936M287.44 234.236C289.545 235.167 291.863 235.53 294.315 234.936" stroke="black" stroke-width="2"/>
</svg>
